0
SECTION
2
HEADER
9
$INSUNITS
70
4
0
ENDSEC
0
SECTION
2
TABLES
0
TABLE
2
LTYPE
0
LTYPE
72
65
70
64
2
CONTINUOUS
3
______
73
0
40
0
0
ENDTAB
0
TABLE
2
LAYER
0
ENDTAB
0
ENDSEC
0
SECTION
2
ENTITIES
0
LINE
8
0
10
3.025
20
-2.525
11
16.025
21
-2.525
0
LINE
8
0
10
3.025
20
-16.525
11
16.025
21
-16.525
0
LINE
8
0
10
2.525
20
-3.025
11
2.525
21
-16.025
0
LINE
8
0
10
16.525
20
-3.025
11
16.525
21
-16.025
0
ARC
8
0
10
3.025
20
-3.025
40
0.5
50
90
51
180
0
ARC
8
0
10
16.025
20
-3.025
40
0.5
50
0
51
90
0
ARC
8
0
10
3.025
20
-16.025
40
0.5
50
180
51
270
0
ARC
8
0
10
16.025
20
-16.025
40
0.5
50
270
51
0
0
LINE
8
0
10
22.075
20
-2.525
11
35.075
21
-2.525
0
LINE
8
0
10
22.075
20
-16.525
11
35.075
21
-16.525
0
LINE
8
0
10
21.575
20
-3.025
11
21.575
21
-16.025
0
LINE
8
0
10
35.575
20
-3.025
11
35.575
21
-16.025
0
ARC
8
0
10
22.075
20
-3.025
40
0.5
50
90
51
180
0
ARC
8
0
10
35.075
20
-3.025
40
0.5
50
0
51
90
0
ARC
8
0
10
22.075
20
-16.025
40
0.5
50
180
51
270
0
ARC
8
0
10
35.075
20
-16.025
40
0.5
50
270
51
0
0
LINE
8
0
10
41.125
20
-2.525
11
54.125
21
-2.525
0
LINE
8
0
10
41.125
20
-16.525
11
54.125
21
-16.525
0
LINE
8
0
10
40.625
20
-3.025
11
40.625
21
-16.025
0
LINE
8
0
10
54.625
20
-3.025
11
54.625
21
-16.025
0
ARC
8
0
10
41.125
20
-3.025
40
0.5
50
90
51
180
0
ARC
8
0
10
54.125
20
-3.025
40
0.5
50
0
51
90
0
ARC
8
0
10
41.125
20
-16.025
40
0.5
50
180
51
270
0
ARC
8
0
10
54.125
20
-16.025
40
0.5
50
270
51
0
0
LINE
8
0
10
60.175
20
-2.525
11
73.175
21
-2.525
0
LINE
8
0
10
60.175
20
-16.525
11
73.175
21
-16.525
0
LINE
8
0
10
59.675
20
-3.025
11
59.675
21
-16.025
0
LINE
8
0
10
73.675
20
-3.025
11
73.675
21
-16.025
0
ARC
8
0
10
60.175
20
-3.025
40
0.5
50
90
51
180
0
ARC
8
0
10
73.175
20
-3.025
40
0.5
50
0
51
90
0
ARC
8
0
10
60.175
20
-16.025
40
0.5
50
180
51
270
0
ARC
8
0
10
73.175
20
-16.025
40
0.5
50
270
51
0
0
LINE
8
0
10
79.225
20
-2.525
11
92.225
21
-2.525
0
LINE
8
0
10
79.225
20
-16.525
11
92.225
21
-16.525
0
LINE
8
0
10
78.725
20
-3.025
11
78.725
21
-16.025
0
LINE
8
0
10
92.725
20
-3.025
11
92.725
21
-16.025
0
ARC
8
0
10
79.225
20
-3.025
40
0.5
50
90
51
180
0
ARC
8
0
10
92.225
20
-3.025
40
0.5
50
0
51
90
0
ARC
8
0
10
79.225
20
-16.025
40
0.5
50
180
51
270
0
ARC
8
0
10
92.225
20
-16.025
40
0.5
50
270
51
0
0
LINE
8
0
10
98.275
20
-2.525
11
111.275
21
-2.525
0
LINE
8
0
10
98.275
20
-16.525
11
111.275
21
-16.525
0
LINE
8
0
10
97.775
20
-3.025
11
97.775
21
-16.025
0
LINE
8
0
10
111.775
20
-3.025
11
111.775
21
-16.025
0
ARC
8
0
10
98.275
20
-3.025
40
0.5
50
90
51
180
0
ARC
8
0
10
111.275
20
-3.025
40
0.5
50
0
51
90
0
ARC
8
0
10
98.275
20
-16.025
40
0.5
50
180
51
270
0
ARC
8
0
10
111.275
20
-16.025
40
0.5
50
270
51
0
0
LINE
8
0
10
117.325
20
-2.525
11
130.325
21
-2.525
0
LINE
8
0
10
117.325
20
-16.525
11
130.325
21
-16.525
0
LINE
8
0
10
116.825
20
-3.025
11
116.825
21
-16.025
0
LINE
8
0
10
130.825
20
-3.025
11
130.825
21
-16.025
0
ARC
8
0
10
117.325
20
-3.025
40
0.5
50
90
51
180
0
ARC
8
0
10
130.325
20
-3.025
40
0.5
50
0
51
90
0
ARC
8
0
10
117.325
20
-16.025
40
0.5
50
180
51
270
0
ARC
8
0
10
130.325
20
-16.025
40
0.5
50
270
51
0
0
LINE
8
0
10
136.375
20
-2.525
11
149.375
21
-2.525
0
LINE
8
0
10
136.375
20
-16.525
11
149.375
21
-16.525
0
LINE
8
0
10
135.875
20
-3.025
11
135.875
21
-16.025
0
LINE
8
0
10
149.875
20
-3.025
11
149.875
21
-16.025
0
ARC
8
0
10
136.375
20
-3.025
40
0.5
50
90
51
180
0
ARC
8
0
10
149.375
20
-3.025
40
0.5
50
0
51
90
0
ARC
8
0
10
136.375
20
-16.025
40
0.5
50
180
51
270
0
ARC
8
0
10
149.375
20
-16.025
40
0.5
50
270
51
0
0
LINE
8
0
10
155.425
20
-2.525
11
168.425
21
-2.525
0
LINE
8
0
10
155.425
20
-16.525
11
168.425
21
-16.525
0
LINE
8
0
10
154.925
20
-3.025
11
154.925
21
-16.025
0
LINE
8
0
10
168.925
20
-3.025
11
168.925
21
-16.025
0
ARC
8
0
10
155.425
20
-3.025
40
0.5
50
90
51
180
0
ARC
8
0
10
168.425
20
-3.025
40
0.5
50
0
51
90
0
ARC
8
0
10
155.425
20
-16.025
40
0.5
50
180
51
270
0
ARC
8
0
10
168.425
20
-16.025
40
0.5
50
270
51
0
0
LINE
8
0
10
174.475
20
-2.525
11
187.475
21
-2.525
0
LINE
8
0
10
174.475
20
-16.525
11
187.475
21
-16.525
0
LINE
8
0
10
173.975
20
-3.025
11
173.975
21
-16.025
0
LINE
8
0
10
187.975
20
-3.025
11
187.975
21
-16.025
0
ARC
8
0
10
174.475
20
-3.025
40
0.5
50
90
51
180
0
ARC
8
0
10
187.475
20
-3.025
40
0.5
50
0
51
90
0
ARC
8
0
10
174.475
20
-16.025
40
0.5
50
180
51
270
0
ARC
8
0
10
187.475
20
-16.025
40
0.5
50
270
51
0
0
LINE
8
0
10
193.525
20
-2.525
11
206.525
21
-2.525
0
LINE
8
0
10
193.525
20
-16.525
11
206.525
21
-16.525
0
LINE
8
0
10
193.025
20
-3.025
11
193.025
21
-16.025
0
LINE
8
0
10
207.025
20
-3.025
11
207.025
21
-16.025
0
ARC
8
0
10
193.525
20
-3.025
40
0.5
50
90
51
180
0
ARC
8
0
10
206.525
20
-3.025
40
0.5
50
0
51
90
0
ARC
8
0
10
193.525
20
-16.025
40
0.5
50
180
51
270
0
ARC
8
0
10
206.525
20
-16.025
40
0.5
50
270
51
0
0
LINE
8
0
10
212.575
20
-2.525
11
225.575
21
-2.525
0
LINE
8
0
10
212.575
20
-16.525
11
225.575
21
-16.525
0
LINE
8
0
10
212.075
20
-3.025
11
212.075
21
-16.025
0
LINE
8
0
10
226.075
20
-3.025
11
226.075
21
-16.025
0
ARC
8
0
10
212.575
20
-3.025
40
0.5
50
90
51
180
0
ARC
8
0
10
225.575
20
-3.025
40
0.5
50
0
51
90
0
ARC
8
0
10
212.575
20
-16.025
40
0.5
50
180
51
270
0
ARC
8
0
10
225.575
20
-16.025
40
0.5
50
270
51
0
0
LINE
8
0
10
231.625
20
-2.525
11
244.625
21
-2.525
0
LINE
8
0
10
231.625
20
-16.525
11
244.625
21
-16.525
0
LINE
8
0
10
231.125
20
-3.025
11
231.125
21
-16.025
0
LINE
8
0
10
245.125
20
-3.025
11
245.125
21
-16.025
0
ARC
8
0
10
231.625
20
-3.025
40
0.5
50
90
51
180
0
ARC
8
0
10
244.625
20
-3.025
40
0.5
50
0
51
90
0
ARC
8
0
10
231.625
20
-16.025
40
0.5
50
180
51
270
0
ARC
8
0
10
244.625
20
-16.025
40
0.5
50
270
51
0
0
LINE
8
0
10
250.675
20
-2.525
11
263.675
21
-2.525
0
LINE
8
0
10
250.675
20
-16.525
11
263.675
21
-16.525
0
LINE
8
0
10
250.175
20
-3.025
11
250.175
21
-16.025
0
LINE
8
0
10
264.175
20
-3.025
11
264.175
21
-16.025
0
ARC
8
0
10
250.675
20
-3.025
40
0.5
50
90
51
180
0
ARC
8
0
10
263.675
20
-3.025
40
0.5
50
0
51
90
0
ARC
8
0
10
250.675
20
-16.025
40
0.5
50
180
51
270
0
ARC
8
0
10
263.675
20
-16.025
40
0.5
50
270
51
0
0
LINE
8
0
10
269.725
20
-2.525
11
282.725
21
-2.525
0
LINE
8
0
10
269.725
20
-16.525
11
282.725
21
-16.525
0
LINE
8
0
10
269.225
20
-3.025
11
269.225
21
-16.025
0
LINE
8
0
10
283.225
20
-3.025
11
283.225
21
-16.025
0
ARC
8
0
10
269.725
20
-3.025
40
0.5
50
90
51
180
0
ARC
8
0
10
282.725
20
-3.025
40
0.5
50
0
51
90
0
ARC
8
0
10
269.725
20
-16.025
40
0.5
50
180
51
270
0
ARC
8
0
10
282.725
20
-16.025
40
0.5
50
270
51
0
0
LINE
8
0
10
7.7875
20
-21.575
11
20.7875
21
-21.575
0
LINE
8
0
10
7.7875
20
-35.575
11
20.7875
21
-35.575
0
LINE
8
0
10
7.2875
20
-22.075
11
7.2875
21
-35.075
0
LINE
8
0
10
21.2875
20
-22.075
11
21.2875
21
-35.075
0
ARC
8
0
10
7.7875
20
-22.075
40
0.5
50
90
51
180
0
ARC
8
0
10
20.7875
20
-22.075
40
0.5
50
0
51
90
0
ARC
8
0
10
7.7875
20
-35.075
40
0.5
50
180
51
270
0
ARC
8
0
10
20.7875
20
-35.075
40
0.5
50
270
51
0
0
LINE
8
0
10
31.6
20
-21.575
11
44.6
21
-21.575
0
LINE
8
0
10
31.6
20
-35.575
11
44.6
21
-35.575
0
LINE
8
0
10
31.1
20
-22.075
11
31.1
21
-35.075
0
LINE
8
0
10
45.1
20
-22.075
11
45.1
21
-35.075
0
ARC
8
0
10
31.6
20
-22.075
40
0.5
50
90
51
180
0
ARC
8
0
10
44.6
20
-22.075
40
0.5
50
0
51
90
0
ARC
8
0
10
31.6
20
-35.075
40
0.5
50
180
51
270
0
ARC
8
0
10
44.6
20
-35.075
40
0.5
50
270
51
0
0
LINE
8
0
10
50.65
20
-21.575
11
63.65
21
-21.575
0
LINE
8
0
10
50.65
20
-35.575
11
63.65
21
-35.575
0
LINE
8
0
10
50.15
20
-22.075
11
50.15
21
-35.075
0
LINE
8
0
10
64.15
20
-22.075
11
64.15
21
-35.075
0
ARC
8
0
10
50.65
20
-22.075
40
0.5
50
90
51
180
0
ARC
8
0
10
63.65
20
-22.075
40
0.5
50
0
51
90
0
ARC
8
0
10
50.65
20
-35.075
40
0.5
50
180
51
270
0
ARC
8
0
10
63.65
20
-35.075
40
0.5
50
270
51
0
0
LINE
8
0
10
69.7
20
-21.575
11
82.7
21
-21.575
0
LINE
8
0
10
69.7
20
-35.575
11
82.7
21
-35.575
0
LINE
8
0
10
69.2
20
-22.075
11
69.2
21
-35.075
0
LINE
8
0
10
83.2
20
-22.075
11
83.2
21
-35.075
0
ARC
8
0
10
69.7
20
-22.075
40
0.5
50
90
51
180
0
ARC
8
0
10
82.7
20
-22.075
40
0.5
50
0
51
90
0
ARC
8
0
10
69.7
20
-35.075
40
0.5
50
180
51
270
0
ARC
8
0
10
82.7
20
-35.075
40
0.5
50
270
51
0
0
LINE
8
0
10
88.75
20
-21.575
11
101.75
21
-21.575
0
LINE
8
0
10
88.75
20
-35.575
11
101.75
21
-35.575
0
LINE
8
0
10
88.25
20
-22.075
11
88.25
21
-35.075
0
LINE
8
0
10
102.25
20
-22.075
11
102.25
21
-35.075
0
ARC
8
0
10
88.75
20
-22.075
40
0.5
50
90
51
180
0
ARC
8
0
10
101.75
20
-22.075
40
0.5
50
0
51
90
0
ARC
8
0
10
88.75
20
-35.075
40
0.5
50
180
51
270
0
ARC
8
0
10
101.75
20
-35.075
40
0.5
50
270
51
0
0
LINE
8
0
10
107.8
20
-21.575
11
120.8
21
-21.575
0
LINE
8
0
10
107.8
20
-35.575
11
120.8
21
-35.575
0
LINE
8
0
10
107.3
20
-22.075
11
107.3
21
-35.075
0
LINE
8
0
10
121.3
20
-22.075
11
121.3
21
-35.075
0
ARC
8
0
10
107.8
20
-22.075
40
0.5
50
90
51
180
0
ARC
8
0
10
120.8
20
-22.075
40
0.5
50
0
51
90
0
ARC
8
0
10
107.8
20
-35.075
40
0.5
50
180
51
270
0
ARC
8
0
10
120.8
20
-35.075
40
0.5
50
270
51
0
0
LINE
8
0
10
126.85
20
-21.575
11
139.85
21
-21.575
0
LINE
8
0
10
126.85
20
-35.575
11
139.85
21
-35.575
0
LINE
8
0
10
126.35
20
-22.075
11
126.35
21
-35.075
0
LINE
8
0
10
140.35
20
-22.075
11
140.35
21
-35.075
0
ARC
8
0
10
126.85
20
-22.075
40
0.5
50
90
51
180
0
ARC
8
0
10
139.85
20
-22.075
40
0.5
50
0
51
90
0
ARC
8
0
10
126.85
20
-35.075
40
0.5
50
180
51
270
0
ARC
8
0
10
139.85
20
-35.075
40
0.5
50
270
51
0
0
LINE
8
0
10
145.9
20
-21.575
11
158.9
21
-21.575
0
LINE
8
0
10
145.9
20
-35.575
11
158.9
21
-35.575
0
LINE
8
0
10
145.4
20
-22.075
11
145.4
21
-35.075
0
LINE
8
0
10
159.4
20
-22.075
11
159.4
21
-35.075
0
ARC
8
0
10
145.9
20
-22.075
40
0.5
50
90
51
180
0
ARC
8
0
10
158.9
20
-22.075
40
0.5
50
0
51
90
0
ARC
8
0
10
145.9
20
-35.075
40
0.5
50
180
51
270
0
ARC
8
0
10
158.9
20
-35.075
40
0.5
50
270
51
0
0
LINE
8
0
10
164.95
20
-21.575
11
177.95
21
-21.575
0
LINE
8
0
10
164.95
20
-35.575
11
177.95
21
-35.575
0
LINE
8
0
10
164.45
20
-22.075
11
164.45
21
-35.075
0
LINE
8
0
10
178.45
20
-22.075
11
178.45
21
-35.075
0
ARC
8
0
10
164.95
20
-22.075
40
0.5
50
90
51
180
0
ARC
8
0
10
177.95
20
-22.075
40
0.5
50
0
51
90
0
ARC
8
0
10
164.95
20
-35.075
40
0.5
50
180
51
270
0
ARC
8
0
10
177.95
20
-35.075
40
0.5
50
270
51
0
0
LINE
8
0
10
184
20
-21.575
11
197
21
-21.575
0
LINE
8
0
10
184
20
-35.575
11
197
21
-35.575
0
LINE
8
0
10
183.5
20
-22.075
11
183.5
21
-35.075
0
LINE
8
0
10
197.5
20
-22.075
11
197.5
21
-35.075
0
ARC
8
0
10
184
20
-22.075
40
0.5
50
90
51
180
0
ARC
8
0
10
197
20
-22.075
40
0.5
50
0
51
90
0
ARC
8
0
10
184
20
-35.075
40
0.5
50
180
51
270
0
ARC
8
0
10
197
20
-35.075
40
0.5
50
270
51
0
0
LINE
8
0
10
203.05
20
-21.575
11
216.05
21
-21.575
0
LINE
8
0
10
203.05
20
-35.575
11
216.05
21
-35.575
0
LINE
8
0
10
202.55
20
-22.075
11
202.55
21
-35.075
0
LINE
8
0
10
216.55
20
-22.075
11
216.55
21
-35.075
0
ARC
8
0
10
203.05
20
-22.075
40
0.5
50
90
51
180
0
ARC
8
0
10
216.05
20
-22.075
40
0.5
50
0
51
90
0
ARC
8
0
10
203.05
20
-35.075
40
0.5
50
180
51
270
0
ARC
8
0
10
216.05
20
-35.075
40
0.5
50
270
51
0
0
LINE
8
0
10
222.1
20
-21.575
11
235.1
21
-21.575
0
LINE
8
0
10
222.1
20
-35.575
11
235.1
21
-35.575
0
LINE
8
0
10
221.6
20
-22.075
11
221.6
21
-35.075
0
LINE
8
0
10
235.6
20
-22.075
11
235.6
21
-35.075
0
ARC
8
0
10
222.1
20
-22.075
40
0.5
50
90
51
180
0
ARC
8
0
10
235.1
20
-22.075
40
0.5
50
0
51
90
0
ARC
8
0
10
222.1
20
-35.075
40
0.5
50
180
51
270
0
ARC
8
0
10
235.1
20
-35.075
40
0.5
50
270
51
0
0
LINE
8
0
10
241.15
20
-21.575
11
254.15
21
-21.575
0
LINE
8
0
10
241.15
20
-35.575
11
254.15
21
-35.575
0
LINE
8
0
10
240.65
20
-22.075
11
240.65
21
-35.075
0
LINE
8
0
10
254.65
20
-22.075
11
254.65
21
-35.075
0
ARC
8
0
10
241.15
20
-22.075
40
0.5
50
90
51
180
0
ARC
8
0
10
254.15
20
-22.075
40
0.5
50
0
51
90
0
ARC
8
0
10
241.15
20
-35.075
40
0.5
50
180
51
270
0
ARC
8
0
10
254.15
20
-35.075
40
0.5
50
270
51
0
0
LINE
8
0
10
264.9625
20
-21.575
11
277.9625
21
-21.575
0
LINE
8
0
10
264.9625
20
-35.575
11
277.9625
21
-35.575
0
LINE
8
0
10
264.4625
20
-22.075
11
264.4625
21
-35.075
0
LINE
8
0
10
278.4625
20
-22.075
11
278.4625
21
-35.075
0
ARC
8
0
10
264.9625
20
-22.075
40
0.5
50
90
51
180
0
ARC
8
0
10
277.9625
20
-22.075
40
0.5
50
0
51
90
0
ARC
8
0
10
264.9625
20
-35.075
40
0.5
50
180
51
270
0
ARC
8
0
10
277.9625
20
-35.075
40
0.5
50
270
51
0
0
LINE
8
0
10
10.16875
20
-40.625
11
23.16875
21
-40.625
0
LINE
8
0
10
10.16875
20
-54.625
11
23.16875
21
-54.625
0
LINE
8
0
10
9.66875
20
-41.125
11
9.66875
21
-54.125
0
LINE
8
0
10
23.66875
20
-41.125
11
23.66875
21
-54.125
0
ARC
8
0
10
10.16875
20
-41.125
40
0.5
50
90
51
180
0
ARC
8
0
10
23.16875
20
-41.125
40
0.5
50
0
51
90
0
ARC
8
0
10
10.16875
20
-54.125
40
0.5
50
180
51
270
0
ARC
8
0
10
23.16875
20
-54.125
40
0.5
50
270
51
0
0
LINE
8
0
10
36.3625
20
-40.625
11
49.3625
21
-40.625
0
LINE
8
0
10
36.3625
20
-54.625
11
49.3625
21
-54.625
0
LINE
8
0
10
35.8625
20
-41.125
11
35.8625
21
-54.125
0
LINE
8
0
10
49.8625
20
-41.125
11
49.8625
21
-54.125
0
ARC
8
0
10
36.3625
20
-41.125
40
0.5
50
90
51
180
0
ARC
8
0
10
49.3625
20
-41.125
40
0.5
50
0
51
90
0
ARC
8
0
10
36.3625
20
-54.125
40
0.5
50
180
51
270
0
ARC
8
0
10
49.3625
20
-54.125
40
0.5
50
270
51
0
0
LINE
8
0
10
55.4125
20
-40.625
11
68.4125
21
-40.625
0
LINE
8
0
10
55.4125
20
-54.625
11
68.4125
21
-54.625
0
LINE
8
0
10
54.9125
20
-41.125
11
54.9125
21
-54.125
0
LINE
8
0
10
68.9125
20
-41.125
11
68.9125
21
-54.125
0
ARC
8
0
10
55.4125
20
-41.125
40
0.5
50
90
51
180
0
ARC
8
0
10
68.4125
20
-41.125
40
0.5
50
0
51
90
0
ARC
8
0
10
55.4125
20
-54.125
40
0.5
50
180
51
270
0
ARC
8
0
10
68.4125
20
-54.125
40
0.5
50
270
51
0
0
LINE
8
0
10
74.4625
20
-40.625
11
87.4625
21
-40.625
0
LINE
8
0
10
74.4625
20
-54.625
11
87.4625
21
-54.625
0
LINE
8
0
10
73.9625
20
-41.125
11
73.9625
21
-54.125
0
LINE
8
0
10
87.9625
20
-41.125
11
87.9625
21
-54.125
0
ARC
8
0
10
74.4625
20
-41.125
40
0.5
50
90
51
180
0
ARC
8
0
10
87.4625
20
-41.125
40
0.5
50
0
51
90
0
ARC
8
0
10
74.4625
20
-54.125
40
0.5
50
180
51
270
0
ARC
8
0
10
87.4625
20
-54.125
40
0.5
50
270
51
0
0
LINE
8
0
10
93.5125
20
-40.625
11
106.5125
21
-40.625
0
LINE
8
0
10
93.5125
20
-54.625
11
106.5125
21
-54.625
0
LINE
8
0
10
93.0125
20
-41.125
11
93.0125
21
-54.125
0
LINE
8
0
10
107.0125
20
-41.125
11
107.0125
21
-54.125
0
ARC
8
0
10
93.5125
20
-41.125
40
0.5
50
90
51
180
0
ARC
8
0
10
106.5125
20
-41.125
40
0.5
50
0
51
90
0
ARC
8
0
10
93.5125
20
-54.125
40
0.5
50
180
51
270
0
ARC
8
0
10
106.5125
20
-54.125
40
0.5
50
270
51
0
0
LINE
8
0
10
112.5625
20
-40.625
11
125.5625
21
-40.625
0
LINE
8
0
10
112.5625
20
-54.625
11
125.5625
21
-54.625
0
LINE
8
0
10
112.0625
20
-41.125
11
112.0625
21
-54.125
0
LINE
8
0
10
126.0625
20
-41.125
11
126.0625
21
-54.125
0
ARC
8
0
10
112.5625
20
-41.125
40
0.5
50
90
51
180
0
ARC
8
0
10
125.5625
20
-41.125
40
0.5
50
0
51
90
0
ARC
8
0
10
112.5625
20
-54.125
40
0.5
50
180
51
270
0
ARC
8
0
10
125.5625
20
-54.125
40
0.5
50
270
51
0
0
LINE
8
0
10
131.6125
20
-40.625
11
144.6125
21
-40.625
0
LINE
8
0
10
131.6125
20
-54.625
11
144.6125
21
-54.625
0
LINE
8
0
10
131.1125
20
-41.125
11
131.1125
21
-54.125
0
LINE
8
0
10
145.1125
20
-41.125
11
145.1125
21
-54.125
0
ARC
8
0
10
131.6125
20
-41.125
40
0.5
50
90
51
180
0
ARC
8
0
10
144.6125
20
-41.125
40
0.5
50
0
51
90
0
ARC
8
0
10
131.6125
20
-54.125
40
0.5
50
180
51
270
0
ARC
8
0
10
144.6125
20
-54.125
40
0.5
50
270
51
0
0
LINE
8
0
10
150.6625
20
-40.625
11
163.6625
21
-40.625
0
LINE
8
0
10
150.6625
20
-54.625
11
163.6625
21
-54.625
0
LINE
8
0
10
150.1625
20
-41.125
11
150.1625
21
-54.125
0
LINE
8
0
10
164.1625
20
-41.125
11
164.1625
21
-54.125
0
ARC
8
0
10
150.6625
20
-41.125
40
0.5
50
90
51
180
0
ARC
8
0
10
163.6625
20
-41.125
40
0.5
50
0
51
90
0
ARC
8
0
10
150.6625
20
-54.125
40
0.5
50
180
51
270
0
ARC
8
0
10
163.6625
20
-54.125
40
0.5
50
270
51
0
0
LINE
8
0
10
169.7125
20
-40.625
11
182.7125
21
-40.625
0
LINE
8
0
10
169.7125
20
-54.625
11
182.7125
21
-54.625
0
LINE
8
0
10
169.2125
20
-41.125
11
169.2125
21
-54.125
0
LINE
8
0
10
183.2125
20
-41.125
11
183.2125
21
-54.125
0
ARC
8
0
10
169.7125
20
-41.125
40
0.5
50
90
51
180
0
ARC
8
0
10
182.7125
20
-41.125
40
0.5
50
0
51
90
0
ARC
8
0
10
169.7125
20
-54.125
40
0.5
50
180
51
270
0
ARC
8
0
10
182.7125
20
-54.125
40
0.5
50
270
51
0
0
LINE
8
0
10
188.7625
20
-40.625
11
201.7625
21
-40.625
0
LINE
8
0
10
188.7625
20
-54.625
11
201.7625
21
-54.625
0
LINE
8
0
10
188.2625
20
-41.125
11
188.2625
21
-54.125
0
LINE
8
0
10
202.2625
20
-41.125
11
202.2625
21
-54.125
0
ARC
8
0
10
188.7625
20
-41.125
40
0.5
50
90
51
180
0
ARC
8
0
10
201.7625
20
-41.125
40
0.5
50
0
51
90
0
ARC
8
0
10
188.7625
20
-54.125
40
0.5
50
180
51
270
0
ARC
8
0
10
201.7625
20
-54.125
40
0.5
50
270
51
0
0
LINE
8
0
10
207.8125
20
-40.625
11
220.8125
21
-40.625
0
LINE
8
0
10
207.8125
20
-54.625
11
220.8125
21
-54.625
0
LINE
8
0
10
207.3125
20
-41.125
11
207.3125
21
-54.125
0
LINE
8
0
10
221.3125
20
-41.125
11
221.3125
21
-54.125
0
ARC
8
0
10
207.8125
20
-41.125
40
0.5
50
90
51
180
0
ARC
8
0
10
220.8125
20
-41.125
40
0.5
50
0
51
90
0
ARC
8
0
10
207.8125
20
-54.125
40
0.5
50
180
51
270
0
ARC
8
0
10
220.8125
20
-54.125
40
0.5
50
270
51
0
0
LINE
8
0
10
226.8625
20
-40.625
11
239.8625
21
-40.625
0
LINE
8
0
10
226.8625
20
-54.625
11
239.8625
21
-54.625
0
LINE
8
0
10
226.3625
20
-41.125
11
226.3625
21
-54.125
0
LINE
8
0
10
240.3625
20
-41.125
11
240.3625
21
-54.125
0
ARC
8
0
10
226.8625
20
-41.125
40
0.5
50
90
51
180
0
ARC
8
0
10
239.8625
20
-41.125
40
0.5
50
0
51
90
0
ARC
8
0
10
226.8625
20
-54.125
40
0.5
50
180
51
270
0
ARC
8
0
10
239.8625
20
-54.125
40
0.5
50
270
51
0
0
LINE
8
0
10
257.81875
20
-40.625
11
270.81875
21
-40.625
0
LINE
8
0
10
257.81875
20
-54.625
11
270.81875
21
-54.625
0
LINE
8
0
10
257.31875
20
-41.125
11
257.31875
21
-54.125
0
LINE
8
0
10
271.31875
20
-41.125
11
271.31875
21
-54.125
0
ARC
8
0
10
257.81875
20
-41.125
40
0.5
50
90
51
180
0
ARC
8
0
10
270.81875
20
-41.125
40
0.5
50
0
51
90
0
ARC
8
0
10
257.81875
20
-54.125
40
0.5
50
180
51
270
0
ARC
8
0
10
270.81875
20
-54.125
40
0.5
50
270
51
0
0
LINE
8
0
10
249.25335
20
-41.9354
11
255.50815
21
-41.9354
0
LINE
8
0
10
255.70815
20
-42.1354
11
255.70815
21
-42.5482
0
LINE
8
0
10
255.90815
20
-42.7482
11
264.31875
21
-42.7482
0
LINE
8
0
10
264.31875
20
-53.4416
11
255.90815
21
-53.4416
0
LINE
8
0
10
255.70815
20
-53.6416
11
255.70815
21
-54.029
0
LINE
8
0
10
255.50815
20
-54.229
11
254.10475
21
-54.229
0
LINE
8
0
10
253.90475
20
-54.429
11
253.90475
21
-55.1974
0
LINE
8
0
10
253.70475
20
-55.3974
11
251.05675
21
-55.3974
0
LINE
8
0
10
250.85675
20
-55.1974
11
250.85675
21
-54.429
0
LINE
8
0
10
250.65675
20
-54.229
11
249.25335
21
-54.229
0
LINE
8
0
10
249.05335
20
-54.029
11
249.05335
21
-48.333
0
LINE
8
0
10
248.85335
20
-48.133
11
248.38975
21
-48.133
0
LINE
8
0
10
248.18975
20
-47.933
11
248.18975
21
-45.539
0
LINE
8
0
10
248.38975
20
-45.339
11
248.85335
21
-45.339
0
LINE
8
0
10
249.05335
20
-45.139
11
249.05335
21
-42.1354
0
ARC
8
0
10
255.50815
20
-42.1354
40
0.2
50
0
51
90
0
ARC
8
0
10
255.90815
20
-42.5482
40
0.2
50
180
51
270
0
ARC
8
0
10
255.90815
20
-53.6416
40
0.2
50
90
51
180
0
ARC
8
0
10
255.50815
20
-54.029
40
0.2
50
270
51
0
0
ARC
8
0
10
254.10475
20
-54.429
40
0.2
50
90
51
180
0
ARC
8
0
10
253.70475
20
-55.1974
40
0.2
50
270
51
0
0
ARC
8
0
10
251.05675
20
-55.1974
40
0.2
50
180
51
270
0
ARC
8
0
10
250.65675
20
-54.429
40
0.2
50
0
51
90
0
ARC
8
0
10
249.25335
20
-54.029
40
0.2
50
180
51
270
0
ARC
8
0
10
248.85335
20
-48.333
40
0.2
50
0
51
90
0
ARC
8
0
10
248.38975
20
-47.933
40
0.2
50
180
51
270
0
ARC
8
0
10
248.38975
20
-45.539
40
0.2
50
90
51
180
0
ARC
8
0
10
248.85335
20
-45.139
40
0.2
50
270
51
0
0
ARC
8
0
10
249.25335
20
-42.1354
40
0.2
50
90
51
180
0
LINE
8
0
10
279.38415
20
-41.9354
11
273.12935
21
-41.9354
0
LINE
8
0
10
272.92935
20
-42.1354
11
272.92935
21
-42.5482
0
LINE
8
0
10
272.72935
20
-42.7482
11
264.31875
21
-42.7482
0
LINE
8
0
10
264.31875
20
-53.4416
11
272.72935
21
-53.4416
0
LINE
8
0
10
272.92935
20
-53.6416
11
272.92935
21
-54.029
0
LINE
8
0
10
273.12935
20
-54.229
11
274.53275
21
-54.229
0
LINE
8
0
10
274.73275
20
-54.429
11
274.73275
21
-55.1974
0
LINE
8
0
10
274.93275
20
-55.3974
11
277.58075
21
-55.3974
0
LINE
8
0
10
277.78075
20
-55.1974
11
277.78075
21
-54.429
0
LINE
8
0
10
277.98075
20
-54.229
11
279.38415
21
-54.229
0
LINE
8
0
10
279.58415
20
-54.029
11
279.58415
21
-48.333
0
LINE
8
0
10
279.78415
20
-48.133
11
280.24775
21
-48.133
0
LINE
8
0
10
280.44775
20
-47.933
11
280.44775
21
-45.539
0
LINE
8
0
10
280.24775
20
-45.339
11
279.78415
21
-45.339
0
LINE
8
0
10
279.58415
20
-45.139
11
279.58415
21
-42.1354
0
ARC
8
0
10
273.12935
20
-42.1354
40
0.2
50
90
51
180
0
ARC
8
0
10
272.72935
20
-42.5482
40
0.2
50
270
51
0
0
ARC
8
0
10
272.72935
20
-53.6416
40
0.2
50
0
51
90
0
ARC
8
0
10
273.12935
20
-54.029
40
0.2
50
180
51
270
0
ARC
8
0
10
274.53275
20
-54.429
40
0.2
50
0
51
90
0
ARC
8
0
10
274.93275
20
-55.1974
40
0.2
50
180
51
270
0
ARC
8
0
10
277.58075
20
-55.1974
40
0.2
50
270
51
0
0
ARC
8
0
10
277.98075
20
-54.429
40
0.2
50
90
51
180
0
ARC
8
0
10
279.38415
20
-54.029
40
0.2
50
270
51
0
0
ARC
8
0
10
279.78415
20
-48.333
40
0.2
50
90
51
180
0
ARC
8
0
10
280.24775
20
-47.933
40
0.2
50
270
51
0
0
ARC
8
0
10
280.24775
20
-45.539
40
0.2
50
0
51
90
0
ARC
8
0
10
279.78415
20
-45.139
40
0.2
50
180
51
270
0
ARC
8
0
10
279.38415
20
-42.1354
40
0.2
50
0
51
90
0
LINE
8
0
10
14.93125
20
-59.675
11
27.93125
21
-59.675
0
LINE
8
0
10
14.93125
20
-73.675
11
27.93125
21
-73.675
0
LINE
8
0
10
14.43125
20
-60.175
11
14.43125
21
-73.175
0
LINE
8
0
10
28.43125
20
-60.175
11
28.43125
21
-73.175
0
ARC
8
0
10
14.93125
20
-60.175
40
0.5
50
90
51
180
0
ARC
8
0
10
27.93125
20
-60.175
40
0.5
50
0
51
90
0
ARC
8
0
10
14.93125
20
-73.175
40
0.5
50
180
51
270
0
ARC
8
0
10
27.93125
20
-73.175
40
0.5
50
270
51
0
0
LINE
8
0
10
6.36585
20
-60.9854
11
12.62065
21
-60.9854
0
LINE
8
0
10
12.82065
20
-61.1854
11
12.82065
21
-61.5982
0
LINE
8
0
10
13.02065
20
-61.7982
11
21.43125
21
-61.7982
0
LINE
8
0
10
21.43125
20
-72.4916
11
13.02065
21
-72.4916
0
LINE
8
0
10
12.82065
20
-72.6916
11
12.82065
21
-73.079
0
LINE
8
0
10
12.62065
20
-73.279
11
11.21725
21
-73.279
0
LINE
8
0
10
11.01725
20
-73.479
11
11.01725
21
-74.2474
0
LINE
8
0
10
10.81725
20
-74.4474
11
8.16925
21
-74.4474
0
LINE
8
0
10
7.96925
20
-74.2474
11
7.96925
21
-73.479
0
LINE
8
0
10
7.76925
20
-73.279
11
6.36585
21
-73.279
0
LINE
8
0
10
6.16585
20
-73.079
11
6.16585
21
-67.383
0
LINE
8
0
10
5.96585
20
-67.183
11
5.50225
21
-67.183
0
LINE
8
0
10
5.30225
20
-66.983
11
5.30225
21
-64.589
0
LINE
8
0
10
5.50225
20
-64.389
11
5.96585
21
-64.389
0
LINE
8
0
10
6.16585
20
-64.189
11
6.16585
21
-61.1854
0
ARC
8
0
10
12.62065
20
-61.1854
40
0.2
50
0
51
90
0
ARC
8
0
10
13.02065
20
-61.5982
40
0.2
50
180
51
270
0
ARC
8
0
10
13.02065
20
-72.6916
40
0.2
50
90
51
180
0
ARC
8
0
10
12.62065
20
-73.079
40
0.2
50
270
51
0
0
ARC
8
0
10
11.21725
20
-73.479
40
0.2
50
90
51
180
0
ARC
8
0
10
10.81725
20
-74.2474
40
0.2
50
270
51
0
0
ARC
8
0
10
8.16925
20
-74.2474
40
0.2
50
180
51
270
0
ARC
8
0
10
7.76925
20
-73.479
40
0.2
50
0
51
90
0
ARC
8
0
10
6.36585
20
-73.079
40
0.2
50
180
51
270
0
ARC
8
0
10
5.96585
20
-67.383
40
0.2
50
0
51
90
0
ARC
8
0
10
5.50225
20
-66.983
40
0.2
50
180
51
270
0
ARC
8
0
10
5.50225
20
-64.589
40
0.2
50
90
51
180
0
ARC
8
0
10
5.96585
20
-64.189
40
0.2
50
270
51
0
0
ARC
8
0
10
6.36585
20
-61.1854
40
0.2
50
90
51
180
0
LINE
8
0
10
36.49665
20
-60.9854
11
30.24185
21
-60.9854
0
LINE
8
0
10
30.04185
20
-61.1854
11
30.04185
21
-61.5982
0
LINE
8
0
10
29.84185
20
-61.7982
11
21.43125
21
-61.7982
0
LINE
8
0
10
21.43125
20
-72.4916
11
29.84185
21
-72.4916
0
LINE
8
0
10
30.04185
20
-72.6916
11
30.04185
21
-73.079
0
LINE
8
0
10
30.24185
20
-73.279
11
31.64525
21
-73.279
0
LINE
8
0
10
31.84525
20
-73.479
11
31.84525
21
-74.2474
0
LINE
8
0
10
32.04525
20
-74.4474
11
34.69325
21
-74.4474
0
LINE
8
0
10
34.89325
20
-74.2474
11
34.89325
21
-73.479
0
LINE
8
0
10
35.09325
20
-73.279
11
36.49665
21
-73.279
0
LINE
8
0
10
36.69665
20
-73.079
11
36.69665
21
-67.383
0
LINE
8
0
10
36.89665
20
-67.183
11
37.36025
21
-67.183
0
LINE
8
0
10
37.56025
20
-66.983
11
37.56025
21
-64.589
0
LINE
8
0
10
37.36025
20
-64.389
11
36.89665
21
-64.389
0
LINE
8
0
10
36.69665
20
-64.189
11
36.69665
21
-61.1854
0
ARC
8
0
10
30.24185
20
-61.1854
40
0.2
50
90
51
180
0
ARC
8
0
10
29.84185
20
-61.5982
40
0.2
50
270
51
0
0
ARC
8
0
10
29.84185
20
-72.6916
40
0.2
50
0
51
90
0
ARC
8
0
10
30.24185
20
-73.079
40
0.2
50
180
51
270
0
ARC
8
0
10
31.64525
20
-73.479
40
0.2
50
0
51
90
0
ARC
8
0
10
32.04525
20
-74.2474
40
0.2
50
180
51
270
0
ARC
8
0
10
34.69325
20
-74.2474
40
0.2
50
270
51
0
0
ARC
8
0
10
35.09325
20
-73.479
40
0.2
50
90
51
180
0
ARC
8
0
10
36.49665
20
-73.079
40
0.2
50
270
51
0
0
ARC
8
0
10
36.89665
20
-67.383
40
0.2
50
90
51
180
0
ARC
8
0
10
37.36025
20
-66.983
40
0.2
50
270
51
0
0
ARC
8
0
10
37.36025
20
-64.589
40
0.2
50
0
51
90
0
ARC
8
0
10
36.89665
20
-64.189
40
0.2
50
180
51
270
0
ARC
8
0
10
36.49665
20
-61.1854
40
0.2
50
0
51
90
0
LINE
8
0
10
45.8875
20
-59.675
11
58.8875
21
-59.675
0
LINE
8
0
10
45.8875
20
-73.675
11
58.8875
21
-73.675
0
LINE
8
0
10
45.3875
20
-60.175
11
45.3875
21
-73.175
0
LINE
8
0
10
59.3875
20
-60.175
11
59.3875
21
-73.175
0
ARC
8
0
10
45.8875
20
-60.175
40
0.5
50
90
51
180
0
ARC
8
0
10
58.8875
20
-60.175
40
0.5
50
0
51
90
0
ARC
8
0
10
45.8875
20
-73.175
40
0.5
50
180
51
270
0
ARC
8
0
10
58.8875
20
-73.175
40
0.5
50
270
51
0
0
LINE
8
0
10
64.9375
20
-59.675
11
77.9375
21
-59.675
0
LINE
8
0
10
64.9375
20
-73.675
11
77.9375
21
-73.675
0
LINE
8
0
10
64.4375
20
-60.175
11
64.4375
21
-73.175
0
LINE
8
0
10
78.4375
20
-60.175
11
78.4375
21
-73.175
0
ARC
8
0
10
64.9375
20
-60.175
40
0.5
50
90
51
180
0
ARC
8
0
10
77.9375
20
-60.175
40
0.5
50
0
51
90
0
ARC
8
0
10
64.9375
20
-73.175
40
0.5
50
180
51
270
0
ARC
8
0
10
77.9375
20
-73.175
40
0.5
50
270
51
0
0
LINE
8
0
10
83.9875
20
-59.675
11
96.9875
21
-59.675
0
LINE
8
0
10
83.9875
20
-73.675
11
96.9875
21
-73.675
0
LINE
8
0
10
83.4875
20
-60.175
11
83.4875
21
-73.175
0
LINE
8
0
10
97.4875
20
-60.175
11
97.4875
21
-73.175
0
ARC
8
0
10
83.9875
20
-60.175
40
0.5
50
90
51
180
0
ARC
8
0
10
96.9875
20
-60.175
40
0.5
50
0
51
90
0
ARC
8
0
10
83.9875
20
-73.175
40
0.5
50
180
51
270
0
ARC
8
0
10
96.9875
20
-73.175
40
0.5
50
270
51
0
0
LINE
8
0
10
103.0375
20
-59.675
11
116.0375
21
-59.675
0
LINE
8
0
10
103.0375
20
-73.675
11
116.0375
21
-73.675
0
LINE
8
0
10
102.5375
20
-60.175
11
102.5375
21
-73.175
0
LINE
8
0
10
116.5375
20
-60.175
11
116.5375
21
-73.175
0
ARC
8
0
10
103.0375
20
-60.175
40
0.5
50
90
51
180
0
ARC
8
0
10
116.0375
20
-60.175
40
0.5
50
0
51
90
0
ARC
8
0
10
103.0375
20
-73.175
40
0.5
50
180
51
270
0
ARC
8
0
10
116.0375
20
-73.175
40
0.5
50
270
51
0
0
LINE
8
0
10
122.0875
20
-59.675
11
135.0875
21
-59.675
0
LINE
8
0
10
122.0875
20
-73.675
11
135.0875
21
-73.675
0
LINE
8
0
10
121.5875
20
-60.175
11
121.5875
21
-73.175
0
LINE
8
0
10
135.5875
20
-60.175
11
135.5875
21
-73.175
0
ARC
8
0
10
122.0875
20
-60.175
40
0.5
50
90
51
180
0
ARC
8
0
10
135.0875
20
-60.175
40
0.5
50
0
51
90
0
ARC
8
0
10
122.0875
20
-73.175
40
0.5
50
180
51
270
0
ARC
8
0
10
135.0875
20
-73.175
40
0.5
50
270
51
0
0
LINE
8
0
10
141.1375
20
-59.675
11
154.1375
21
-59.675
0
LINE
8
0
10
141.1375
20
-73.675
11
154.1375
21
-73.675
0
LINE
8
0
10
140.6375
20
-60.175
11
140.6375
21
-73.175
0
LINE
8
0
10
154.6375
20
-60.175
11
154.6375
21
-73.175
0
ARC
8
0
10
141.1375
20
-60.175
40
0.5
50
90
51
180
0
ARC
8
0
10
154.1375
20
-60.175
40
0.5
50
0
51
90
0
ARC
8
0
10
141.1375
20
-73.175
40
0.5
50
180
51
270
0
ARC
8
0
10
154.1375
20
-73.175
40
0.5
50
270
51
0
0
LINE
8
0
10
160.1875
20
-59.675
11
173.1875
21
-59.675
0
LINE
8
0
10
160.1875
20
-73.675
11
173.1875
21
-73.675
0
LINE
8
0
10
159.6875
20
-60.175
11
159.6875
21
-73.175
0
LINE
8
0
10
173.6875
20
-60.175
11
173.6875
21
-73.175
0
ARC
8
0
10
160.1875
20
-60.175
40
0.5
50
90
51
180
0
ARC
8
0
10
173.1875
20
-60.175
40
0.5
50
0
51
90
0
ARC
8
0
10
160.1875
20
-73.175
40
0.5
50
180
51
270
0
ARC
8
0
10
173.1875
20
-73.175
40
0.5
50
270
51
0
0
LINE
8
0
10
179.2375
20
-59.675
11
192.2375
21
-59.675
0
LINE
8
0
10
179.2375
20
-73.675
11
192.2375
21
-73.675
0
LINE
8
0
10
178.7375
20
-60.175
11
178.7375
21
-73.175
0
LINE
8
0
10
192.7375
20
-60.175
11
192.7375
21
-73.175
0
ARC
8
0
10
179.2375
20
-60.175
40
0.5
50
90
51
180
0
ARC
8
0
10
192.2375
20
-60.175
40
0.5
50
0
51
90
0
ARC
8
0
10
179.2375
20
-73.175
40
0.5
50
180
51
270
0
ARC
8
0
10
192.2375
20
-73.175
40
0.5
50
270
51
0
0
LINE
8
0
10
198.2875
20
-59.675
11
211.2875
21
-59.675
0
LINE
8
0
10
198.2875
20
-73.675
11
211.2875
21
-73.675
0
LINE
8
0
10
197.7875
20
-60.175
11
197.7875
21
-73.175
0
LINE
8
0
10
211.7875
20
-60.175
11
211.7875
21
-73.175
0
ARC
8
0
10
198.2875
20
-60.175
40
0.5
50
90
51
180
0
ARC
8
0
10
211.2875
20
-60.175
40
0.5
50
0
51
90
0
ARC
8
0
10
198.2875
20
-73.175
40
0.5
50
180
51
270
0
ARC
8
0
10
211.2875
20
-73.175
40
0.5
50
270
51
0
0
LINE
8
0
10
217.3375
20
-59.675
11
230.3375
21
-59.675
0
LINE
8
0
10
217.3375
20
-73.675
11
230.3375
21
-73.675
0
LINE
8
0
10
216.8375
20
-60.175
11
216.8375
21
-73.175
0
LINE
8
0
10
230.8375
20
-60.175
11
230.8375
21
-73.175
0
ARC
8
0
10
217.3375
20
-60.175
40
0.5
50
90
51
180
0
ARC
8
0
10
230.3375
20
-60.175
40
0.5
50
0
51
90
0
ARC
8
0
10
217.3375
20
-73.175
40
0.5
50
180
51
270
0
ARC
8
0
10
230.3375
20
-73.175
40
0.5
50
270
51
0
0
LINE
8
0
10
243.53125
20
-59.675
11
256.53125
21
-59.675
0
LINE
8
0
10
243.53125
20
-73.675
11
256.53125
21
-73.675
0
LINE
8
0
10
243.03125
20
-60.175
11
243.03125
21
-73.175
0
LINE
8
0
10
257.03125
20
-60.175
11
257.03125
21
-73.175
0
ARC
8
0
10
243.53125
20
-60.175
40
0.5
50
90
51
180
0
ARC
8
0
10
256.53125
20
-60.175
40
0.5
50
0
51
90
0
ARC
8
0
10
243.53125
20
-73.175
40
0.5
50
180
51
270
0
ARC
8
0
10
256.53125
20
-73.175
40
0.5
50
270
51
0
0
LINE
8
0
10
269.725
20
-59.675
11
282.725
21
-59.675
0
LINE
8
0
10
269.725
20
-73.675
11
282.725
21
-73.675
0
LINE
8
0
10
269.225
20
-60.175
11
269.225
21
-73.175
0
LINE
8
0
10
283.225
20
-60.175
11
283.225
21
-73.175
0
ARC
8
0
10
269.725
20
-60.175
40
0.5
50
90
51
180
0
ARC
8
0
10
282.725
20
-60.175
40
0.5
50
0
51
90
0
ARC
8
0
10
269.725
20
-73.175
40
0.5
50
180
51
270
0
ARC
8
0
10
282.725
20
-73.175
40
0.5
50
270
51
0
0
LINE
8
0
10
7.7875
20
-78.725
11
20.7875
21
-78.725
0
LINE
8
0
10
7.7875
20
-92.725
11
20.7875
21
-92.725
0
LINE
8
0
10
7.2875
20
-79.225
11
7.2875
21
-92.225
0
LINE
8
0
10
21.2875
20
-79.225
11
21.2875
21
-92.225
0
ARC
8
0
10
7.7875
20
-79.225
40
0.5
50
90
51
180
0
ARC
8
0
10
20.7875
20
-79.225
40
0.5
50
0
51
90
0
ARC
8
0
10
7.7875
20
-92.225
40
0.5
50
180
51
270
0
ARC
8
0
10
20.7875
20
-92.225
40
0.5
50
270
51
0
0
LINE
8
0
10
31.6
20
-78.725
11
44.6
21
-78.725
0
LINE
8
0
10
31.6
20
-92.725
11
44.6
21
-92.725
0
LINE
8
0
10
31.1
20
-79.225
11
31.1
21
-92.225
0
LINE
8
0
10
45.1
20
-79.225
11
45.1
21
-92.225
0
ARC
8
0
10
31.6
20
-79.225
40
0.5
50
90
51
180
0
ARC
8
0
10
44.6
20
-79.225
40
0.5
50
0
51
90
0
ARC
8
0
10
31.6
20
-92.225
40
0.5
50
180
51
270
0
ARC
8
0
10
44.6
20
-92.225
40
0.5
50
270
51
0
0
LINE
8
0
10
55.4125
20
-78.725
11
68.4125
21
-78.725
0
LINE
8
0
10
55.4125
20
-92.725
11
68.4125
21
-92.725
0
LINE
8
0
10
54.9125
20
-79.225
11
54.9125
21
-92.225
0
LINE
8
0
10
68.9125
20
-79.225
11
68.9125
21
-92.225
0
ARC
8
0
10
55.4125
20
-79.225
40
0.5
50
90
51
180
0
ARC
8
0
10
68.4125
20
-79.225
40
0.5
50
0
51
90
0
ARC
8
0
10
55.4125
20
-92.225
40
0.5
50
180
51
270
0
ARC
8
0
10
68.4125
20
-92.225
40
0.5
50
270
51
0
0
LINE
8
0
10
126.85
20
-78.725
11
139.85
21
-78.725
0
LINE
8
0
10
126.85
20
-92.725
11
139.85
21
-92.725
0
LINE
8
0
10
126.35
20
-79.225
11
126.35
21
-92.225
0
LINE
8
0
10
140.35
20
-79.225
11
140.35
21
-92.225
0
ARC
8
0
10
126.85
20
-79.225
40
0.5
50
90
51
180
0
ARC
8
0
10
139.85
20
-79.225
40
0.5
50
0
51
90
0
ARC
8
0
10
126.85
20
-92.225
40
0.5
50
180
51
270
0
ARC
8
0
10
139.85
20
-92.225
40
0.5
50
270
51
0
0
LINE
8
0
10
82.5976
20
-80.0354
11
88.8524
21
-80.0354
0
LINE
8
0
10
89.0524
20
-80.2354
11
89.0524
21
-83.225
0
LINE
8
0
10
89.2524
20
-83.425
11
133.35
21
-83.425
0
LINE
8
0
10
133.35
20
-88.025
11
89.2524
21
-88.025
0
LINE
8
0
10
89.0524
20
-88.225
11
89.0524
21
-92.129
0
LINE
8
0
10
88.8524
20
-92.329
11
87.449
21
-92.329
0
LINE
8
0
10
87.249
20
-92.529
11
87.249
21
-93.2974
0
LINE
8
0
10
87.049
20
-93.4974
11
84.401
21
-93.4974
0
LINE
8
0
10
84.201
20
-93.2974
11
84.201
21
-92.529
0
LINE
8
0
10
84.001
20
-92.329
11
82.5976
21
-92.329
0
LINE
8
0
10
82.3976
20
-92.129
11
82.3976
21
-86.433
0
LINE
8
0
10
82.1976
20
-86.233
11
81.734
21
-86.233
0
LINE
8
0
10
81.534
20
-86.033
11
81.534
21
-83.639
0
LINE
8
0
10
81.734
20
-83.439
11
82.1976
21
-83.439
0
LINE
8
0
10
82.3976
20
-83.239
11
82.3976
21
-80.2354
0
ARC
8
0
10
88.8524
20
-80.2354
40
0.2
50
0
51
90
0
ARC
8
0
10
89.2524
20
-83.225
40
0.2
50
180
51
270
0
ARC
8
0
10
89.2524
20
-88.225
40
0.2
50
90
51
180
0
ARC
8
0
10
88.8524
20
-92.129
40
0.2
50
270
51
0
0
ARC
8
0
10
87.449
20
-92.529
40
0.2
50
90
51
180
0
ARC
8
0
10
87.049
20
-93.2974
40
0.2
50
270
51
0
0
ARC
8
0
10
84.401
20
-93.2974
40
0.2
50
180
51
270
0
ARC
8
0
10
84.001
20
-92.529
40
0.2
50
0
51
90
0
ARC
8
0
10
82.5976
20
-92.129
40
0.2
50
180
51
270
0
ARC
8
0
10
82.1976
20
-86.433
40
0.2
50
0
51
90
0
ARC
8
0
10
81.734
20
-86.033
40
0.2
50
180
51
270
0
ARC
8
0
10
81.734
20
-83.639
40
0.2
50
90
51
180
0
ARC
8
0
10
82.1976
20
-83.239
40
0.2
50
270
51
0
0
ARC
8
0
10
82.5976
20
-80.2354
40
0.2
50
90
51
180
0
LINE
8
0
10
184.1024
20
-80.0354
11
177.8476
21
-80.0354
0
LINE
8
0
10
177.6476
20
-80.2354
11
177.6476
21
-83.225
0
LINE
8
0
10
177.4476
20
-83.425
11
133.35
21
-83.425
0
LINE
8
0
10
133.35
20
-88.025
11
177.4476
21
-88.025
0
LINE
8
0
10
177.6476
20
-88.225
11
177.6476
21
-92.129
0
LINE
8
0
10
177.8476
20
-92.329
11
179.251
21
-92.329
0
LINE
8
0
10
179.451
20
-92.529
11
179.451
21
-93.2974
0
LINE
8
0
10
179.651
20
-93.4974
11
182.299
21
-93.4974
0
LINE
8
0
10
182.499
20
-93.2974
11
182.499
21
-92.529
0
LINE
8
0
10
182.699
20
-92.329
11
184.1024
21
-92.329
0
LINE
8
0
10
184.3024
20
-92.129
11
184.3024
21
-86.433
0
LINE
8
0
10
184.5024
20
-86.233
11
184.966
21
-86.233
0
LINE
8
0
10
185.166
20
-86.033
11
185.166
21
-83.639
0
LINE
8
0
10
184.966
20
-83.439
11
184.5024
21
-83.439
0
LINE
8
0
10
184.3024
20
-83.239
11
184.3024
21
-80.2354
0
ARC
8
0
10
177.8476
20
-80.2354
40
0.2
50
90
51
180
0
ARC
8
0
10
177.4476
20
-83.225
40
0.2
50
270
51
0
0
ARC
8
0
10
177.4476
20
-88.225
40
0.2
50
0
51
90
0
ARC
8
0
10
177.8476
20
-92.129
40
0.2
50
180
51
270
0
ARC
8
0
10
179.251
20
-92.529
40
0.2
50
0
51
90
0
ARC
8
0
10
179.651
20
-93.2974
40
0.2
50
180
51
270
0
ARC
8
0
10
182.299
20
-93.2974
40
0.2
50
270
51
0
0
ARC
8
0
10
182.699
20
-92.529
40
0.2
50
90
51
180
0
ARC
8
0
10
184.1024
20
-92.129
40
0.2
50
270
51
0
0
ARC
8
0
10
184.5024
20
-86.433
40
0.2
50
90
51
180
0
ARC
8
0
10
184.966
20
-86.033
40
0.2
50
270
51
0
0
ARC
8
0
10
184.966
20
-83.639
40
0.2
50
0
51
90
0
ARC
8
0
10
184.5024
20
-83.239
40
0.2
50
180
51
270
0
ARC
8
0
10
184.1024
20
-80.2354
40
0.2
50
0
51
90
0
LINE
8
0
10
198.2875
20
-78.725
11
211.2875
21
-78.725
0
LINE
8
0
10
198.2875
20
-92.725
11
211.2875
21
-92.725
0
LINE
8
0
10
197.7875
20
-79.225
11
197.7875
21
-92.225
0
LINE
8
0
10
211.7875
20
-79.225
11
211.7875
21
-92.225
0
ARC
8
0
10
198.2875
20
-79.225
40
0.5
50
90
51
180
0
ARC
8
0
10
211.2875
20
-79.225
40
0.5
50
0
51
90
0
ARC
8
0
10
198.2875
20
-92.225
40
0.5
50
180
51
270
0
ARC
8
0
10
211.2875
20
-92.225
40
0.5
50
270
51
0
0
LINE
8
0
10
222.1
20
-78.725
11
235.1
21
-78.725
0
LINE
8
0
10
222.1
20
-92.725
11
235.1
21
-92.725
0
LINE
8
0
10
221.6
20
-79.225
11
221.6
21
-92.225
0
LINE
8
0
10
235.6
20
-79.225
11
235.6
21
-92.225
0
ARC
8
0
10
222.1
20
-79.225
40
0.5
50
90
51
180
0
ARC
8
0
10
235.1
20
-79.225
40
0.5
50
0
51
90
0
ARC
8
0
10
222.1
20
-92.225
40
0.5
50
180
51
270
0
ARC
8
0
10
235.1
20
-92.225
40
0.5
50
270
51
0
0
LINE
8
0
10
0
20
-95.25
11
285.75
21
-95.25
0
LINE
8
0
10
0
20
0
11
285.75
21
0
0
LINE
8
0
10
0
20
-95.25
11
0
21
0
0
LINE
8
0
10
285.75
20
-95.25
11
285.75
21
0
0
ENDSEC
0
EOF